<?xml version="1.0" standalone="no"?>
<!DOCTYPE svg PUBLIC "-//W3C//DTD SVG 20010904//EN"
 "http://www.w3.org/TR/2001/REC-SVG-20010904/DTD/svg10.dtd">
<svg version="1.0" xmlns="http://www.w3.org/2000/svg"
 width="980.000000pt" height="840.000000pt" viewBox="0 0 980.000000 840.000000"
 preserveAspectRatio="xMidYMid meet">

<g transform="translate(0.000000,840.000000) scale(0.100000,-0.100000)"
fill="#000000" stroke="none">
<path d="M4802 8389 c-170 -16 -372 -92 -502 -188 -368 -275 -517 -733 -375
-1156 25 -76 30 -103 22 -112 -7 -6 -574 -380 -1262 -830 l-1250 -818 -360 -6
c-327 -5 -367 -8 -440 -28 -319 -86 -557 -334 -620 -647 -14 -71 -15 -274 -13
-1999 l3 -1920 31 -92 c96 -283 310 -485 599 -566 l80 -22 4100 -3 c2832 -2
4135 0 4212 8 131 12 219 37 325 92 192 99 338 273 412 491 l31 92 3 1920 c2
1680 1 1929 -13 1995 -63 317 -299 565 -620 651 -73 20 -113 23 -440 28 l-360
6 -1250 818 c-687 450 -1256 824 -1262 831 -10 9 -9 23 8 65 48 127 63 219 62
376 0 167 -14 236 -77 391 -83 203 -258 396 -458 504 -181 98 -380 138 -586
119z m221 -434 c220 -46 405 -224 461 -442 20 -78 20 -218 0 -297 -26 -103
-80 -193 -163 -276 -91 -90 -185 -141 -310 -166 -256 -51 -530 84 -646 318
-49 100 -65 167 -65 273 0 172 51 296 175 421 60 61 98 90 155 118 128 62 259
80 393 51z m-619 -1490 c349 -195 795 -162 1120 84 l62 47 1002 -655 1002
-656 -1345 -3 c-740 -1 -1950 -1 -2690 0 l-1344 3 1001 656 1002 655 63 -47
c34 -26 91 -64 127 -84z m4709 -1643 c150 -61 243 -189 261 -359 l7 -63 -4481
0 -4481 0 7 63 c20 190 131 324 306 372 46 12 641 13 4188 12 l4135 -2 58 -23z
m267 -2409 c0 -964 -4 -1584 -10 -1626 -18 -121 -91 -234 -191 -294 -115 -68
257 -63 -4279 -63 -4536 0 -4164 -5 -4279 63 -100 60 -173 173 -191 294 -6 42
-10 662 -10 1626 l0 1557 4480 0 4480 0 0 -1557z"/>
<path d="M3225 2974 c-448 -66 -705 -336 -705 -739 0 -309 163 -537 451 -633
222 -73 522 -71 752 5 164 54 314 186 387 338 55 116 73 198 74 340 0 143 -16
214 -75 333 -80 159 -246 282 -449 332 -64 16 -125 22 -245 25 -88 2 -173 1
-190 -1z m282 -345 c115 -55 182 -168 191 -318 5 -102 -8 -170 -49 -253 -84
-167 -273 -238 -437 -163 -192 87 -264 327 -163 549 49 108 132 180 241 210
72 20 140 12 217 -25z"/>
<path d="M5006 2969 c-285 -42 -492 -180 -600 -401 -119 -244 -99 -567 46
-755 77 -101 227 -193 380 -235 96 -26 341 -35 515 -19 154 14 162 16 167 44
9 45 46 292 46 305 0 17 -26 15 -142 -13 -244 -59 -394 -37 -506 75 -177 177
-108 526 128 645 115 58 217 64 405 24 49 -10 102 -19 117 -19 28 0 28 0 23
58 -3 31 -7 105 -11 164 l-6 107 -36 5 c-155 25 -408 32 -526 15z"/>
<path d="M1376 2718 c-11 -384 -54 -1039 -73 -1115 l-5 -23 550 0 549 0 6 68
c4 37 9 104 13 150 l7 82 -302 0 -301 0 0 48 c0 26 9 210 20 408 27 494 30
555 35 587 l5 27 -249 0 -248 0 -7 -232z"/>
<path d="M6233 2828 c-55 -112 -548 -1055 -623 -1190 l-32 -58 262 0 261 0 21
48 c11 26 49 113 85 195 l65 147 223 0 222 0 46 -147 c26 -82 52 -169 59 -195
l12 -48 253 0 c139 0 253 2 253 4 0 2 -15 44 -34 92 -54 140 -337 921 -401
1107 l-58 167 -277 0 -277 0 -60 -122z m357 -400 c23 -73 44 -138 47 -145 4
-10 -21 -13 -117 -13 -67 0 -120 4 -118 9 16 41 134 281 139 281 3 0 25 -59
49 -132z"/>
<path d="M7516 2718 c-11 -384 -54 -1039 -73 -1115 l-5 -23 550 0 549 0 6 68
c4 37 9 104 13 150 l7 82 -302 0 -301 0 0 48 c0 26 9 210 20 408 27 494 30
555 35 587 l5 27 -249 0 -248 0 -7 -232z"/>
</g>
</svg>
